<?xml version="1.0" encoding="UTF-8" standalone="no"?>
<!-- Created with Inkscape (http://www.inkscape.org/) -->

<svg
   xmlns:dc="http://purl.org/dc/elements/1.1/"
   xmlns:cc="http://creativecommons.org/ns#"
   xmlns:rdf="http://www.w3.org/1999/02/22-rdf-syntax-ns#"
   xmlns:svg="http://www.w3.org/2000/svg"
   xmlns="http://www.w3.org/2000/svg"
   xmlns:xlink="http://www.w3.org/1999/xlink"
   xmlns:sodipodi="http://sodipodi.sourceforge.net/DTD/sodipodi-0.dtd"
   xmlns:inkscape="http://www.inkscape.org/namespaces/inkscape"
   width="744.09448819"
   height="1052.3622047"
   id="svg2"
   version="1.1"
   inkscape:version="0.47 r22583"
   sodipodi:docname="New document 1">
  <defs
     id="defs4">
    <inkscape:perspective
       sodipodi:type="inkscape:persp3d"
       inkscape:vp_x="0 : 526.18109 : 1"
       inkscape:vp_y="0 : 1000 : 0"
       inkscape:vp_z="744.09448 : 526.18109 : 1"
       inkscape:persp3d-origin="372.04724 : 350.78739 : 1"
       id="perspective10" />
    <inkscape:perspective
       id="perspective3602"
       inkscape:persp3d-origin="0.5 : 0.33333333 : 1"
       inkscape:vp_z="1 : 0.5 : 1"
       inkscape:vp_y="0 : 1000 : 0"
       inkscape:vp_x="0 : 0.5 : 1"
       sodipodi:type="inkscape:persp3d" />
    <inkscape:perspective
       id="perspective3624"
       inkscape:persp3d-origin="0.5 : 0.33333333 : 1"
       inkscape:vp_z="1 : 0.5 : 1"
       inkscape:vp_y="0 : 1000 : 0"
       inkscape:vp_x="0 : 0.5 : 1"
       sodipodi:type="inkscape:persp3d" />
    <inkscape:perspective
       id="perspective3650"
       inkscape:persp3d-origin="0.5 : 0.33333333 : 1"
       inkscape:vp_z="1 : 0.5 : 1"
       inkscape:vp_y="0 : 1000 : 0"
       inkscape:vp_x="0 : 0.5 : 1"
       sodipodi:type="inkscape:persp3d" />
    <inkscape:perspective
       id="perspective3672"
       inkscape:persp3d-origin="0.5 : 0.33333333 : 1"
       inkscape:vp_z="1 : 0.5 : 1"
       inkscape:vp_y="0 : 1000 : 0"
       inkscape:vp_x="0 : 0.5 : 1"
       sodipodi:type="inkscape:persp3d" />
    <inkscape:perspective
       id="perspective3694"
       inkscape:persp3d-origin="0.5 : 0.33333333 : 1"
       inkscape:vp_z="1 : 0.5 : 1"
       inkscape:vp_y="0 : 1000 : 0"
       inkscape:vp_x="0 : 0.5 : 1"
       sodipodi:type="inkscape:persp3d" />
    <inkscape:perspective
       id="perspective3694-1"
       inkscape:persp3d-origin="0.5 : 0.33333333 : 1"
       inkscape:vp_z="1 : 0.5 : 1"
       inkscape:vp_y="0 : 1000 : 0"
       inkscape:vp_x="0 : 0.5 : 1"
       sodipodi:type="inkscape:persp3d" />
    <inkscape:perspective
       id="perspective3725"
       inkscape:persp3d-origin="0.5 : 0.33333333 : 1"
       inkscape:vp_z="1 : 0.5 : 1"
       inkscape:vp_y="0 : 1000 : 0"
       inkscape:vp_x="0 : 0.5 : 1"
       sodipodi:type="inkscape:persp3d" />
    <inkscape:perspective
       id="perspective3747"
       inkscape:persp3d-origin="0.5 : 0.33333333 : 1"
       inkscape:vp_z="1 : 0.5 : 1"
       inkscape:vp_y="0 : 1000 : 0"
       inkscape:vp_x="0 : 0.5 : 1"
       sodipodi:type="inkscape:persp3d" />
    <inkscape:perspective
       id="perspective3791"
       inkscape:persp3d-origin="0.5 : 0.33333333 : 1"
       inkscape:vp_z="1 : 0.5 : 1"
       inkscape:vp_y="0 : 1000 : 0"
       inkscape:vp_x="0 : 0.5 : 1"
       sodipodi:type="inkscape:persp3d" />
    <inkscape:perspective
       id="perspective3813"
       inkscape:persp3d-origin="0.5 : 0.33333333 : 1"
       inkscape:vp_z="1 : 0.5 : 1"
       inkscape:vp_y="0 : 1000 : 0"
       inkscape:vp_x="0 : 0.5 : 1"
       sodipodi:type="inkscape:persp3d" />
    <inkscape:perspective
       id="perspective3839"
       inkscape:persp3d-origin="0.5 : 0.33333333 : 1"
       inkscape:vp_z="1 : 0.5 : 1"
       inkscape:vp_y="0 : 1000 : 0"
       inkscape:vp_x="0 : 0.5 : 1"
       sodipodi:type="inkscape:persp3d" />
    <inkscape:perspective
       id="perspective3861"
       inkscape:persp3d-origin="0.5 : 0.33333333 : 1"
       inkscape:vp_z="1 : 0.5 : 1"
       inkscape:vp_y="0 : 1000 : 0"
       inkscape:vp_x="0 : 0.5 : 1"
       sodipodi:type="inkscape:persp3d" />
    <inkscape:perspective
       id="perspective3883"
       inkscape:persp3d-origin="0.5 : 0.33333333 : 1"
       inkscape:vp_z="1 : 0.5 : 1"
       inkscape:vp_y="0 : 1000 : 0"
       inkscape:vp_x="0 : 0.5 : 1"
       sodipodi:type="inkscape:persp3d" />
    <inkscape:perspective
       id="perspective3905"
       inkscape:persp3d-origin="0.5 : 0.33333333 : 1"
       inkscape:vp_z="1 : 0.5 : 1"
       inkscape:vp_y="0 : 1000 : 0"
       inkscape:vp_x="0 : 0.5 : 1"
       sodipodi:type="inkscape:persp3d" />
    <inkscape:perspective
       id="perspective3927"
       inkscape:persp3d-origin="0.5 : 0.33333333 : 1"
       inkscape:vp_z="1 : 0.5 : 1"
       inkscape:vp_y="0 : 1000 : 0"
       inkscape:vp_x="0 : 0.5 : 1"
       sodipodi:type="inkscape:persp3d" />
    <inkscape:perspective
       id="perspective3949"
       inkscape:persp3d-origin="0.5 : 0.33333333 : 1"
       inkscape:vp_z="1 : 0.5 : 1"
       inkscape:vp_y="0 : 1000 : 0"
       inkscape:vp_x="0 : 0.5 : 1"
       sodipodi:type="inkscape:persp3d" />
    <inkscape:perspective
       id="perspective3971"
       inkscape:persp3d-origin="0.5 : 0.33333333 : 1"
       inkscape:vp_z="1 : 0.5 : 1"
       inkscape:vp_y="0 : 1000 : 0"
       inkscape:vp_x="0 : 0.5 : 1"
       sodipodi:type="inkscape:persp3d" />
    <inkscape:perspective
       id="perspective3971-5"
       inkscape:persp3d-origin="0.5 : 0.33333333 : 1"
       inkscape:vp_z="1 : 0.5 : 1"
       inkscape:vp_y="0 : 1000 : 0"
       inkscape:vp_x="0 : 0.5 : 1"
       sodipodi:type="inkscape:persp3d" />
    <inkscape:perspective
       id="perspective4002"
       inkscape:persp3d-origin="0.5 : 0.33333333 : 1"
       inkscape:vp_z="1 : 0.5 : 1"
       inkscape:vp_y="0 : 1000 : 0"
       inkscape:vp_x="0 : 0.5 : 1"
       sodipodi:type="inkscape:persp3d" />
    <inkscape:perspective
       id="perspective4036"
       inkscape:persp3d-origin="0.5 : 0.33333333 : 1"
       inkscape:vp_z="1 : 0.5 : 1"
       inkscape:vp_y="0 : 1000 : 0"
       inkscape:vp_x="0 : 0.5 : 1"
       sodipodi:type="inkscape:persp3d" />
    <inkscape:perspective
       id="perspective4122"
       inkscape:persp3d-origin="0.5 : 0.33333333 : 1"
       inkscape:vp_z="1 : 0.5 : 1"
       inkscape:vp_y="0 : 1000 : 0"
       inkscape:vp_x="0 : 0.5 : 1"
       sodipodi:type="inkscape:persp3d" />
    <inkscape:perspective
       id="perspective4225"
       inkscape:persp3d-origin="0.5 : 0.33333333 : 1"
       inkscape:vp_z="1 : 0.5 : 1"
       inkscape:vp_y="0 : 1000 : 0"
       inkscape:vp_x="0 : 0.5 : 1"
       sodipodi:type="inkscape:persp3d" />
    <inkscape:perspective
       id="perspective4239"
       inkscape:persp3d-origin="0.5 : 0.33333333 : 1"
       inkscape:vp_z="1 : 0.5 : 1"
       inkscape:vp_y="0 : 1000 : 0"
       inkscape:vp_x="0 : 0.5 : 1"
       sodipodi:type="inkscape:persp3d" />
    <inkscape:perspective
       id="perspective4261"
       inkscape:persp3d-origin="0.5 : 0.33333333 : 1"
       inkscape:vp_z="1 : 0.5 : 1"
       inkscape:vp_y="0 : 1000 : 0"
       inkscape:vp_x="0 : 0.5 : 1"
       sodipodi:type="inkscape:persp3d" />
    <inkscape:perspective
       id="perspective4296"
       inkscape:persp3d-origin="0.5 : 0.33333333 : 1"
       inkscape:vp_z="1 : 0.5 : 1"
       inkscape:vp_y="0 : 1000 : 0"
       inkscape:vp_x="0 : 0.5 : 1"
       sodipodi:type="inkscape:persp3d" />
  </defs>
  <sodipodi:namedview
     id="base"
     pagecolor="#ffffff"
     bordercolor="#666666"
     borderopacity="1.0"
     inkscape:pageopacity="0.0"
     inkscape:pageshadow="2"
     inkscape:zoom="1"
     inkscape:cx="-139.22266"
     inkscape:cy="812.1579"
     inkscape:document-units="px"
     inkscape:current-layer="layer1"
     showgrid="true"
     objecttolerance="10000"
     inkscape:window-width="1200"
     inkscape:window-height="1577"
     inkscape:window-x="1200"
     inkscape:window-y="0"
     inkscape:window-maximized="1">
    <inkscape:grid
       type="xygrid"
       id="grid3638"
       empspacing="5"
       visible="true"
       enabled="true"
       snapvisiblegridlinesonly="true" />
  </sodipodi:namedview>
  <metadata
     id="metadata7">
    <rdf:RDF>
      <cc:Work
         rdf:about="">
        <dc:format>image/svg+xml</dc:format>
        <dc:type
           rdf:resource="http://purl.org/dc/dcmitype/StillImage" />
        <dc:title></dc:title>
      </cc:Work>
    </rdf:RDF>
  </metadata>
  <g
     inkscape:label="Layer 1"
     inkscape:groupmode="layer"
     id="layer1">
    <path
       style="color:#000000;fill:#4a147e;fill-opacity:1;stroke:#151515;stroke-width:3.20000005;stroke-linecap:butt;stroke-linejoin:miter;stroke-miterlimit:4;stroke-opacity:1;stroke-dasharray:none;stroke-dashoffset:0;marker:none;visibility:visible;display:inline;overflow:visible;enable-background:accumulate"
       d="m 323.55871,189.4847 c -0.30676,0.30676 0.30677,0.99472 0,1.30148 -0.15338,0.15338 -0.49735,-0.15338 -0.65073,0 -0.13304,0.13303 0.129,1.6942 0,1.95221 -0.13719,0.27437 -0.55373,0.35972 -0.65074,0.65074 -0.14757,0.44269 0.17252,2.90864 0,3.25368 -0.13719,0.27438 -0.51355,0.37637 -0.65074,0.65074 -0.26029,0.52059 0.2603,1.43162 0,1.95221 -0.13718,0.27438 -0.51355,0.37636 -0.65073,0.65074 -0.19402,0.38802 0.13718,0.88991 0,1.30147 -0.15338,0.46014 -0.49736,0.84134 -0.65074,1.30148 -0.24503,0.73508 0.45089,1.35268 0.65074,1.95221 0.30522,0.91566 -0.27827,0.55653 -0.65074,1.30147 -0.19401,0.38803 0.30676,0.99472 0,1.30148 -0.15338,0.15338 -0.45673,-0.097 -0.65074,0 -0.27437,0.13719 -0.37636,0.51355 -0.65074,0.65073 -0.19401,0.097 -0.45672,-0.097 -0.65073,0 -1.43882,0.71941 -0.20194,0.40388 -0.65074,1.30148 -0.27437,0.54875 -1.0271,0.75272 -1.30147,1.30147 -0.097,0.19402 0,0.43383 0,0.65074 0,0.43383 0.10521,0.8806 0,1.30147 -0.11764,0.47055 -0.49736,0.84134 -0.65074,1.30148 -0.15253,0.45757 0.17837,3.07531 0,3.25369 -0.15338,0.15338 -0.49736,-0.15339 -0.65074,0 -0.15338,0.15338 0.097,0.45672 0,0.65073 -0.13719,0.27438 -0.51355,0.37636 -0.65074,0.65074 -0.097,0.19401 0.15338,0.49736 0,0.65074 -0.15338,0.15338 -0.55373,-0.19402 -0.65073,0 -0.10995,0.2199 0.0543,3.6329 0,3.90442 -0.0951,0.47561 -0.5331,0.83092 -0.65074,1.30147 -0.13448,0.53794 0.16535,3.57372 0,3.90443 -0.13719,0.27437 -0.51355,0.37636 -0.65074,0.65073 -0.097,0.19402 0.15338,0.49736 0,0.65074 -0.15338,0.15338 -0.45672,-0.097 -0.65073,0 -0.27438,0.13719 -0.43383,0.43383 -0.65074,0.65074 -0.21691,0.21691 -0.51355,0.37636 -0.65074,0.65074 -0.097,0.19401 0.15338,0.49735 0,0.65073 -0.15338,0.15338 -0.49736,-0.15338 -0.65074,0 -0.30676,0.30676 0.19402,0.91345 0,1.30148 -0.13718,0.27437 -0.51355,0.37636 -0.65073,0.65073 -0.097,0.19402 0,0.43383 0,0.65074 0,0.43383 0.13718,0.88991 0,1.30148 -0.097,0.29101 -0.48058,0.39549 -0.65074,0.65073 -1.43368,0.32771 -0.34398,1.33869 -0.65074,1.95221 -0.7194,1.43882 -0.40387,0.20194 -1.30147,0.65074 -0.27438,0.13719 -0.37636,0.51355 -0.65074,0.65074 -0.19401,0.097 -0.45672,-0.097 -0.65074,0 -0.27437,0.13719 -0.37636,0.51355 -0.65073,0.65074 -0.19402,0.097 -0.49736,-0.15338 -0.65074,0 -0.15338,0.15338 0.15338,0.49735 0,0.65073 -0.15338,0.15338 -0.49736,-0.15338 -0.65074,0 -0.15338,0.15338 0.097,0.45673 0,0.65074 -0.13718,0.27437 -0.51355,0.37636 -0.65073,0.65074 -0.19402,0.38802 0.30676,0.99471 0,1.30147 -0.15338,0.15338 -0.49736,-0.15338 -0.65074,0 -0.15338,0.15338 0.15338,0.49736 0,0.65074 -0.15338,0.15338 -0.49736,-0.15338 -0.65074,0 -0.30676,0.30676 0.30676,0.99471 0,1.30147 -0.15338,0.15338 -0.45672,-0.097 -0.65074,0 -0.27437,0.13719 -0.37636,0.51355 -0.65073,0.65074 -0.19402,0.097 -0.45673,-0.097 -0.65074,0 -0.27438,0.13719 -0.43382,0.43383 -0.65074,0.65074 -0.21691,0.21691 -0.51355,0.37636 -0.65073,0.65073 -0.097,0.19402 0.097,0.45673 0,0.65074 -0.13719,0.27438 -0.51355,0.37636 -0.65074,0.65074 -0.097,0.19401 0.097,0.45672 0,0.65074 -0.13719,0.27437 -0.43383,0.43382 -0.65074,0.65073 -0.21691,0.21692 -0.37636,0.51355 -0.65074,0.65074 -0.19401,0.097 -0.49735,-0.15338 -0.65073,0 -0.15338,0.15338 0.15338,0.49736 0,0.65074 -0.15338,0.15338 -0.49736,-0.15338 -0.65074,0 -0.15338,0.15338 0.15338,0.49735 0,0.65073 -0.15338,0.15338 -0.49736,-0.15338 -0.65074,0 -0.15338,0.15338 0.15338,0.49736 0,0.65074 -0.15338,0.15338 -0.49735,-0.15338 -0.65073,0 -0.30677,0.30676 0.30676,0.99472 0,1.30148 -0.15338,0.15338 -0.49736,-0.15338 -0.65074,0 -0.30676,0.30676 0.30676,0.99471 0,1.30147 -0.15338,0.15338 -0.49736,-0.15338 -0.65074,0 -0.15338,0.15338 0.15338,0.49736 0,0.65074 -0.15338,0.15338 -0.49736,-0.15338 -0.65074,0 -0.15338,0.15338 0.097,0.45672 0,0.65073 -0.32017,0.64035 -2.28277,1.96261 -2.60294,2.60295 -0.097,0.19402 0.15338,0.49736 0,0.65074 -0.44207,0.44206 -1.29416,-0.66537 -1.95222,0.65074 -0.19401,0.38802 0.19402,0.91345 0,1.30147 -0.13718,0.27438 -0.51355,0.37636 -0.65073,0.65074 -0.19402,0.38802 0.30676,0.99471 0,1.30147 -0.15338,0.15338 -0.49736,-0.15338 -0.65074,0 -0.30676,0.30676 0.30676,0.99472 0,1.30148 -0.30676,0.30676 -0.99471,-0.30676 -1.30147,0 -0.15339,0.15338 0.15338,0.49735 0,0.65074 -0.15339,0.15338 -0.45673,-0.097 -0.65074,0 -0.27438,0.13718 -0.37636,0.51354 -0.65074,0.65073 -0.19401,0.097 -0.49736,-0.15338 -0.65074,0 -0.15338,0.15338 0.097,0.45673 0,0.65074 -0.13718,0.27437 -0.43382,0.43382 -0.65073,0.65074 -0.21692,0.21691 -0.37637,0.51355 -0.65074,0.65073 -0.19401,0.097 -0.49736,0.15338 -0.65074,0 -0.0295,-0.0295 0,-2.94686 0,-3.25368 0,-0.21691 0.15338,-0.49736 0,-0.65074 -0.15338,-0.15338 -0.49735,0.15338 -0.65074,0 -0.15338,-0.15338 0,-0.43382 0,-0.65074 0,-0.21691 0,-0.43382 0,-0.65073 0,-0.83937 -0.14734,-4.11312 0,-4.55516 0.15339,-0.46014 0.5331,-0.83093 0.65074,-1.30148 0.10522,-0.42087 -0.13719,-0.88991 0,-1.30147 0.097,-0.29102 0.55373,-0.35972 0.65074,-0.65074 0.20578,-0.61734 -0.20578,-1.33487 0,-1.95221 0.15338,-0.46014 0.5331,-0.83093 0.65074,-1.30148 0.15782,-0.6313 -0.20578,-1.33486 0,-1.95221 0.15338,-0.46014 0.5331,-0.83092 0.65073,-1.30147 0.21044,-0.84174 -0.17016,-1.75215 0,-2.60295 0.13453,-0.67262 0.51622,-1.27959 0.65074,-1.95221 0.0851,-0.4254 0,-0.86765 0,-1.30148 0,-0.65073 0,-1.30147 0,-1.95221 0,-0.65073 0,-1.30147 0,-1.95221 0,-0.43382 0.10522,-0.8806 0,-1.30147 -0.11764,-0.47055 -0.49736,-0.84134 -0.65074,-1.30148 -0.0476,-0.14289 -0.0484,-2.5062 0,-2.60295 0.13719,-0.27437 0.51355,-0.37636 0.65074,-0.65073 0.2603,-0.52059 -0.26029,-1.43162 0,-1.95221 0.13719,-0.27438 0.65074,-0.34398 0.65074,-0.65074 0,-0.30676 -0.51355,-0.37636 -0.65074,-0.65074 -0.097,-0.19401 0,-0.43382 0,-0.65074 0,-0.21691 -0.15338,-0.49735 0,-0.65073 0.15338,-0.15338 0.49736,0.15338 0.65074,0 0.22842,-0.22842 -0.22475,-2.8042 0,-3.25369 0.13719,-0.27437 0.51355,-0.37636 0.65074,-0.65074 0.2045,-0.409 -0.20451,-2.19394 0,-2.60294 0.13718,-0.27438 0.51354,-0.37637 0.65073,-0.65074 0.17651,-0.35302 -0.17805,-2.42489 0,-2.60295 0.15338,-0.15338 0.49736,0.15338 0.65074,0 0.22842,-0.22842 -0.22474,-2.8042 0,-3.25369 0.13719,-0.27437 0.51355,-0.37636 0.65074,-0.65073 0.0841,-0.16825 0,-3.44318 0,-3.90443 0,-0.21691 -0.15338,-0.49735 0,-0.65073 0.15338,-0.15338 0.49735,0.15338 0.65073,0 0.30676,-0.30676 -0.19401,-0.91345 0,-1.30148 0.13719,-0.27437 0.51355,-0.37636 0.65074,-0.65074 0.19401,-0.38802 -0.30676,-0.99471 0,-1.30147 0.30676,-0.30676 0.91345,0.19401 1.30148,0 0.27437,-0.13719 0.37636,-0.51355 0.65073,-0.65074 0.19401,-0.097 0.45673,0.097 0.65074,0 0.54875,-0.27437 0.75272,-1.0271 1.30147,-1.30147 0.19402,-0.097 0.45673,0.097 0.65074,0 0.54875,-0.27438 0.791,-0.96116 1.30148,-1.30148 0.40357,-0.26904 0.8979,-0.38169 1.30147,-0.65073 0.51048,-0.34032 0.75272,-1.0271 1.30147,-1.30148 0.19402,-0.097 0.43383,0 0.65074,0 0.21691,-0.21691 0.37636,-0.51355 0.65074,-0.65073 0.34842,-0.17421 0.95305,0.17421 1.30147,0 0.27438,-0.13719 0.37636,-0.51355 0.65074,-0.65074 0.19401,-0.097 0.44496,0.0686 0.65074,0 0.46014,-0.15338 0.84133,-0.49736 1.30147,-0.65074 0.20578,-0.0686 0.45673,0.097 0.65074,0 0.86919,-0.43459 0.43229,-0.86688 1.30147,-1.30147 0.19402,-0.097 0.45673,0.097 0.65074,0 0.86919,-0.4346 0.43229,-0.86688 1.30147,-1.30148 0.19402,-0.097 0.45673,0.097 0.65074,0 0.54875,-0.27437 0.75273,-1.0271 1.30148,-1.30147 0.19401,-0.097 0.49735,0.15338 0.65073,0 0.15338,-0.15338 -0.097,-0.45673 0,-0.65074 0.27438,-0.54875 1.0271,-0.75272 1.30148,-1.30147 0.097,-0.19402 -0.15338,-0.49736 0,-0.65074 0.15338,-0.15338 0.45672,0.097 0.65073,0 0.54875,-0.27437 0.75273,-1.0271 1.30148,-1.30147 0.19401,-0.097 0.49736,0.15338 0.65074,0 1.34639,-1.3464 -2.05748,0.0526 0.65073,-1.30148 0.19402,-0.097 0.45673,0.097 0.65074,0 0.64034,-0.32017 1.9626,-2.28278 2.60295,-2.60295 0.19401,-0.097 0.49736,0.15338 0.65074,0 0.15338,-0.15338 -0.15338,-0.49735 0,-0.65073 0.30676,-0.30676 0.99471,0.30676 1.30147,0 0.15338,-0.15338 -0.15338,-0.49736 0,-0.65074 0.30676,-0.30676 0.91345,0.19401 1.30147,0 0.27438,-0.13719 0.37637,-0.51355 0.65074,-0.65074 0.19401,-0.097 0.45673,0.097 0.65074,0 0.52912,-0.26456 0.53843,-1.03226 1.30147,-0.65074 1.13128,0.56564 2.12241,1.38658 3.25369,1.95222 9.57682,3.83073 2.11691,-0.32135 3.25369,1.95221 0.13718,0.27437 0.51354,0.37636 0.65073,0.65073 0.097,0.19402 -0.097,0.45673 0,0.65074 0.28839,0.57677 1.5573,1.35984 1.95221,1.95221 0.26905,0.40357 0.38169,0.89791 0.65074,1.30148 0.39492,0.59237 1.66383,1.37544 1.95221,1.95221 0.097,0.19401 -0.097,0.45672 0,0.65074 0.13719,0.27437 0.55373,0.35971 0.65074,0.65073 0.27437,0.82313 -0.27438,1.77983 0,2.60295 0.097,0.29102 0.55373,0.35972 0.65074,0.65074 0.27437,0.82312 -0.21044,1.7612 0,2.60295 0.11763,0.47055 0.4706,0.85113 0.65073,1.30147 1.61369,0.61412 0.36792,1.75449 0.65074,2.60295 0.15338,0.46014 0.5331,0.83093 0.65074,1.30147 0.10522,0.42088 -0.10522,0.88061 0,1.30148 0.11764,0.47055 0.5331,0.83092 0.65074,1.30147 0.26304,1.05218 -0.2127,2.19019 0,3.25369 0.0951,0.47561 0.5331,0.83092 0.65073,1.30147 0.26305,1.05218 -0.2127,2.19019 0,3.25369 0.0951,0.47561 0.5331,0.83092 0.65074,1.30147 0.10522,0.42088 0,0.86765 0,1.30148 0,0.65074 0,1.30147 0,1.95221 0,0.43382 -0.10522,0.8806 0,1.30147 0.11764,0.47055 0.5331,0.83093 0.65074,1.30148 0.24354,0.97415 -0.20604,2.87422 0,3.90442 0.13452,0.67262 0.53797,1.27561 0.65073,1.95221 0.21047,1.26281 -0.21046,2.64162 0,3.90443 0.22554,1.3532 1.07594,2.55121 1.30148,3.90442 0.10698,0.64188 -0.12762,1.31411 0,1.95221 0.0951,0.47561 0.5331,0.83093 0.65074,1.30147 0.10521,0.42088 0,0.86765 0,1.30148 0.21691,0.43382 0.5331,0.83092 0.65073,1.30147 0.21044,0.84175 -0.17016,1.75215 0,2.60295 0.13453,0.67262 0.43383,1.30148 0.65074,1.95221 0,0.86765 -0.10762,1.742 0,2.60295 0.11093,0.88745 0.43382,1.7353 0.65074,2.60295 0.21691,0.86765 0.40504,1.74301 0.65073,2.60295 0.18845,0.65954 0.53797,1.27561 0.65074,1.95221 0.10698,0.64188 -0.092,1.30802 0,1.95221 -0.67293,1.67918 1.03243,2.55919 1.30148,3.90443 0.12762,0.6381 -0.12762,1.31411 0,1.95221 0.19024,0.95122 1.0662,1.66185 1.30147,2.60295 0.21044,0.84174 -0.21044,1.7612 0,2.60294 0.11764,0.47055 0.5331,0.83093 0.65074,1.30148 0.21043,0.84174 -0.17016,1.75215 0,2.60295 0.26904,1.34523 1.07594,2.55121 1.30147,3.90442 0.10698,0.64188 -0.10698,1.31033 0,1.95221 0.30832,1.84991 0.69456,1.7364 1.30148,3.25369 2.62019,6.55049 -0.5081,-1.38164 0.65073,3.25368 0.11764,0.47055 0.5331,0.83093 0.65074,1.30148 0.26304,1.05218 -0.2127,2.19018 0,3.25368 0.006,0.0307 1.26549,2.51299 1.30147,2.60295 0.25476,0.63688 0.39599,1.31534 0.65074,1.95221 0.18014,0.45034 0.55562,0.82587 0.65074,1.30148 0.12762,0.6381 -0.12762,1.31411 0,1.95221 0.0951,0.47561 0.43382,0.86765 0.65074,1.30147 0.57843,1.15687 1.03343,1.91349 1.30147,3.25369 0.0851,0.4254 0,0.86765 0,1.30147 0.21691,0.43383 0.5331,0.83093 0.65074,1.30148 0.10522,0.42087 -0.10522,0.8806 0,1.30147 0.11763,0.47055 0.55561,0.82586 0.65073,1.30148 0.12762,0.6381 -0.15782,1.3209 0,1.95221 0.0744,0.2976 0.55374,0.35972 0.65074,0.65074 0.2305,0.69148 -0.23049,1.91146 0,2.60294 0.15338,0.46014 0.49736,0.84134 0.65074,1.30148 0.20578,0.61734 -0.15783,1.3209 0,1.95221 0.11764,0.47055 0.4706,0.85113 0.65074,1.30147 1.61368,0.61412 0.36791,1.7545 0.65073,2.60295 0.15338,0.46014 0.5331,0.83093 0.65074,1.30148 0.10522,0.42087 -0.10522,0.8806 0,1.30147 0.23527,0.9411 1.0662,1.66185 1.30147,2.60295 0.10522,0.42087 -0.10521,0.8806 0,1.30147 0.11764,0.47055 0.49736,0.84134 0.65074,1.30148 0.0686,0.20578 -0.097,0.45672 0,0.65074 0.13719,0.27437 0.51355,0.37636 0.65074,0.65073 0.097,0.19402 0,0.43383 0,0.65074 0,0.43382 -0.13719,0.88991 0,1.30147 0.097,0.29102 0.55373,0.35972 0.65074,0.65074 0.13718,0.41156 -0.10522,0.8806 0,1.30148 0.11763,0.47054 0.5331,0.83092 0.65073,1.30147 0.10522,0.42087 -0.10521,0.8806 0,1.30147 0.23528,0.9411 0.99472,1.68267 1.30148,2.60295 0.0844,0.25322 -0.10099,1.85123 0,1.95221 0.15338,0.15338 0.49735,-0.15338 0.65073,0 0.30677,0.30677 -0.19401,0.91345 0,1.30148 0.13719,0.27437 0.51355,0.37636 0.65074,0.65074 0.19401,0.38802 -0.13719,0.88991 0,1.30147 0.15338,0.46014 0.49736,0.84133 0.65074,1.30147 0.0686,0.20579 -0.097,0.45673 0,0.65074 0.13719,0.27438 0.51355,0.37636 0.65074,0.65074 0.097,0.19401 0,0.43382 0,0.65074 0,0.21691 0.097,0.45672 0,0.65073 -0.13719,0.27438 -0.51355,0.37637 -0.65074,0.65074 -0.19401,0.38803 0.30676,0.99471 0,1.30148 -0.15338,0.15338 -0.49736,-0.15339 -0.65074,0 -0.15338,0.15338 0.097,0.45672 0,0.65073 -0.15067,0.30134 -2.22022,2.22022 -2.60295,2.60295 -0.38272,0.38273 -2.3016,2.45228 -2.60295,2.60295 -0.19401,0.097 -0.49735,-0.15338 -0.65073,0 -0.15338,0.15338 0.097,0.45672 0,0.65074 -0.13719,0.27437 -0.43383,0.43382 -0.65074,0.65073 -0.21691,0.21692 -0.35972,0.55373 -0.65074,0.65074 -0.41156,0.13719 -0.88991,-0.13719 -1.30147,0 -0.29102,0.097 -0.3955,0.48058 -0.65074,0.65074 -0.80714,0.53809 -1.8269,0.71944 -2.60295,1.30147 -0.49081,0.36811 -0.81065,0.93336 -1.30147,1.30148 -0.38803,0.29102 -0.86765,0.43382 -1.30148,0.65073 -0.86765,0.43383 -1.73529,0.86765 -2.60294,1.30148 -1.46306,0.73153 -2.92829,1.62683 -4.55516,1.95221 -0.4254,0.0851 -0.88061,-0.10522 -1.30148,0 -0.47055,0.11764 -0.85113,0.4706 -1.30147,0.65074 -6.47467,2.15822 1.5338,-0.61352 -3.25369,1.30147 -6.5505,2.6202 1.38164,-0.50809 -3.25368,0.65074 -1.29229,0.32307 -2.61214,1.62914 -3.90443,1.95221 -0.42087,0.10522 -0.8806,-0.10522 -1.30147,0 -0.47055,0.11764 -0.83093,0.5331 -1.30148,0.65074 -0.51188,0.12797 -3.2277,0 -3.90442,0 -0.67672,0 -3.39254,-0.12797 -3.90442,0 -0.47055,0.11763 -0.84134,0.49735 -1.30148,0.65073 -0.20578,0.0686 -0.43382,0 -0.65073,0 -0.43383,0 -0.86765,0 -1.30148,0 -1.30147,0 -2.60295,0 -3.90442,0 -0.43383,0 -0.86765,0 -1.30148,0 -0.21691,0 -0.45672,0.097 -0.65073,0 -0.27438,-0.13718 -0.35972,-0.55373 -0.65074,-0.65073 -0.61734,-0.20578 -1.30147,0 -1.95221,0 -1.95221,0 -3.90442,0 -5.85664,0 -0.36321,0 -2.9558,0.0993 -3.25368,0 -0.29102,-0.097 -0.35972,-0.55373 -0.65074,-0.65074 -0.41156,-0.13719 -0.86765,0 -1.30147,0 -1.30148,0 -2.60295,0 -3.90443,0 -0.43382,0 -0.86765,0 -1.30147,0 -0.43383,0 -0.8806,0.10522 -1.30147,0 -0.47055,-0.11764 -0.83093,-0.5331 -1.30148,-0.65074 -0.42087,-0.10522 -0.86765,0 -1.30147,0 -0.65074,0 -1.30148,0 -1.95221,0 -0.43383,0 -0.88061,0.10522 -1.30148,0 -0.47055,-0.11763 -0.83092,-0.5331 -1.30147,-0.65073 -0.42088,-0.10522 -0.86765,0 -1.30148,0 -1.30147,0 -2.60295,0 -3.90442,0 -0.21691,0 -0.43383,0 -0.65074,0 -0.21691,0 -0.45672,0.097 -0.65074,0 -0.54874,-0.27438 -0.71943,-1.10747 -1.30147,-1.30148 -0.41156,-0.13719 -0.88991,0.13719 -1.30147,0 -0.29102,-0.097 -0.35972,-0.55373 -0.65074,-0.65074 -0.41156,-0.13718 -0.88991,0.13719 -1.30148,0 -0.29101,-0.097 -0.35971,-0.55373 -0.65073,-0.65073 -2.96234,0 -0.0372,0.30676 -1.95221,-0.65074 -0.38803,-0.19401 -0.91345,0.19401 -1.30148,0 -0.27437,-0.13719 -0.37636,-0.51355 -0.65074,-0.65074 -0.19401,-0.097 -0.45672,0.097 -0.65073,0 -0.27438,-0.13718 -0.37636,-0.51355 -0.65074,-0.65073 -0.41053,-0.20527 -2.84316,0.20526 -3.25369,0 -0.27437,-0.13719 -0.37636,-0.51355 -0.65073,-0.65074 -0.38803,-0.19401 -0.91345,0.19401 -1.30148,0 -0.27437,-0.13719 -0.37636,-0.51355 -0.65073,-0.65074 -0.38803,-0.19401 -0.99472,0.30676 -1.30148,0 -0.15338,-0.15338 0.15338,-0.49736 0,-0.65074 -0.15659,-0.15658 -2.44636,0.15659 -2.60295,0 -0.15338,-0.15338 0.15338,-0.49735 0,-0.65073 -0.30676,-0.30676 -0.99471,0.30676 -1.30147,0 -0.15338,-0.15338 0.15338,-0.49736 0,-0.65074 -0.15659,-0.15659 -2.44636,0.15659 -2.60295,0 -0.15338,-0.15338 0.15338,-0.49736 0,-0.65074 -0.15338,-0.15338 -0.49736,0.15338 -0.65074,0 -0.15338,-0.15338 0.15338,-0.49735 0,-0.65073 -0.15338,-0.15338 -0.49735,0.15338 -0.65073,0 -0.15338,-0.15338 0.15338,-0.49736 0,-0.65074 -0.15338,-0.15338 -0.49736,0.15338 -0.65074,0 -0.15338,-0.15338 0.15338,-0.49736 0,-0.65074 -0.15338,-0.15338 -0.45673,0.097 -0.65074,0 -0.86952,-0.43476 -0.43195,-0.86671 -1.30147,-1.30147 -0.19402,-0.097 -0.49736,0.15338 -0.65074,0 -0.13303,-0.13304 0.12901,-1.6942 0,-1.95221 -0.13719,-0.27438 -0.51355,-0.37637 -0.65074,-0.65074 -0.0856,-0.17111 0,-2.26267 0,-2.60295 0,-0.56392 -0.12565,-2.22599 0,-2.60295 0.15338,-0.46014 0.5331,-0.83092 0.65074,-1.30147 0.10522,-0.42088 -0.10522,-0.88061 0,-1.30148 0.11764,-0.47055 0.5331,-0.83092 0.65074,-1.30147 0.10521,-0.42087 -0.10522,-0.8806 0,-1.30148 0.11763,-0.47055 0.5331,-0.83092 0.65073,-1.30147 0.10522,-0.42087 -0.0851,-0.87608 0,-1.30148 1.78347,-5.3504 -0.22864,1.37188 0.65074,-3.90442 0.11277,-0.6766 0.53797,-1.27561 0.65074,-1.95221 0.10698,-0.64188 -0.10698,-1.31033 0,-1.95221 0.11277,-0.67661 0.53797,-1.27561 0.65074,-1.95221 0.16127,-0.96767 0,-2.80245 0,-3.90443 0,-0.43382 0,-0.86765 0,-1.30147 0,-0.21691 -0.097,-0.45672 0,-0.65074 0.13718,-0.27437 0.55373,-0.35972 0.65073,-0.65073 0.13719,-0.41157 -0.10522,-0.88061 0,-1.30148 0.11764,-0.47055 0.55562,-0.82586 0.65074,-1.30147 0.12762,-0.6381 -0.10698,-1.31033 0,-1.95221 0.11277,-0.67661 0.55373,-1.27317 0.65074,-1.95222 0.1227,-0.85893 0,-1.7353 0,-2.60294 0,-0.65074 0,-1.30148 0,-1.95222 0,-0.43382 -0.10522,-0.8806 0,-1.30147 0.11763,-0.47055 0.5331,-0.83093 0.65073,-1.30147 0.21044,-0.84175 -0.21043,-1.76121 0,-2.60295 0.11764,-0.47055 0.5331,-0.83093 0.65074,-1.30148 0.10522,-0.42087 -0.10522,-0.8806 0,-1.30147 0.11764,-0.47055 0.5331,-0.83093 0.65074,-1.30148 0.10522,-0.42087 -0.0851,-0.87607 0,-1.30147 0.13452,-0.67262 0.53797,-1.27561 0.65074,-1.95221 0.21396,-1.28377 -0.21397,-2.62066 0,-3.90443 0.11276,-0.6766 0.53797,-1.2756 0.65073,-1.95221 0.10698,-0.64188 0,-1.30147 0,-1.95221 0,-0.43382 -0.13718,-0.88991 0,-1.30147 0.097,-0.29102 0.55373,-0.35972 0.65074,-0.65074 0.29617,-0.88851 -0.29617,-3.01591 0,-3.90442 0.097,-0.29102 0.55373,-0.35972 0.65074,-0.65074 0.13718,-0.41156 -0.10522,-0.8806 0,-1.30147 0.11763,-0.47055 0.5331,-0.83093 0.65073,-1.30148 0.21044,-0.84174 -0.27437,-1.77982 0,-2.60295 0.097,-0.29102 0.55374,-0.35972 0.65074,-0.65073 0.20578,-0.61735 -0.20578,-1.33487 0,-1.95222 0.15338,-0.46014 0.49736,-0.84133 0.65074,-1.30147 0.0686,-0.20578 -0.0686,-0.44496 0,-0.65074 0.15338,-0.46014 0.49736,-0.84133 0.65074,-1.30147 0.0686,-0.20578 -0.0686,-0.44496 0,-0.65074 0.15338,-0.46014 0.5331,-0.83092 0.65073,-1.30147 0.10522,-0.42087 -0.10521,-0.88061 0,-1.30148 -0.39221,-1.17779 1.05416,-1.21025 1.30148,-1.95221 0.13718,-0.41156 -0.0851,-0.87607 0,-1.30147 0.13452,-0.67262 0.51621,-1.2796 0.65073,-1.95221 0.0851,-0.4254 -0.10521,-0.88061 0,-1.30148 0.11764,-0.47055 0.49736,-0.84133 0.65074,-1.30147 0.0686,-0.20578 -0.0686,-0.44496 0,-0.65074 0.30676,-0.92028 1.0662,-1.66185 1.30148,-2.60295 0.10521,-0.42087 -0.13719,-0.88991 0,-1.30147 0.097,-0.29102 0.48057,-0.3955 0.65073,-0.65074 0.26905,-0.40357 0.43383,-0.86765 0.65074,-1.30147 0.43383,-0.86765 0.86765,-1.7353 1.30147,-2.60295 0.43383,-0.86765 0.99472,-1.68267 1.30148,-2.60295 0.0686,-0.20578 -0.0686,-0.44496 0,-0.65074 0.15338,-0.46014 0.49736,-0.84133 0.65074,-1.30147 0.0686,-0.20578 -0.097,-0.45673 0,-0.65074 0.13718,-0.27438 0.48057,-0.3955 0.65073,-0.65074 2.1916,-3.2874 0.005,-0.0151 0.65074,-1.95221 0.78637,-2.35911 0.30875,-0.46313 1.30147,-1.95221 1.11037,0.31892 0.48857,-1.62787 0.65074,-1.95221 0.13719,-0.27438 0.51355,-0.37636 0.65074,-0.65074 0.17373,-0.34746 -0.17373,-0.95402 0,-1.30147 0.13719,-0.27438 0.51355,-0.37637 0.65074,-0.65074 0.19401,-0.38803 -0.19402,-0.91345 0,-1.30148 0.13718,-0.27437 0.51355,-0.37636 0.65073,-0.65073 0.097,-0.19402 0,-0.43383 0,-0.65074 0,-0.43382 -0.13718,-0.88991 0,-1.30147 0.097,-0.29102 0.51355,-0.37637 0.65074,-0.65074 0.12901,-0.25801 -0.13303,-1.81918 0,-1.95221 0.15338,-0.15338 0.49736,0.15338 0.65074,0 0.30676,-0.30676 -0.30676,-0.99472 0,-1.30148 0.15338,-0.15338 0.49735,0.15338 0.65073,0 0.30677,-0.30676 -0.19401,-0.91345 0,-1.30147 0.13719,-0.27438 0.51355,-0.37636 0.65074,-0.65074 0.2603,-0.52059 -0.26029,-1.43162 0,-1.95221 0.13719,-0.27438 0.51355,-0.37636 0.65074,-0.65074 0.097,-0.19401 -0.097,-0.45672 0,-0.65073 0.13719,-0.27438 0.55373,-0.35972 0.65074,-0.65074 0.13718,-0.41156 0,-0.86765 0,-1.30148 0,-0.21691 -0.097,-0.45672 0,-0.65073 0.13718,-0.27438 0.51355,-0.37637 0.65073,-0.65074 0.097,-0.19401 -0.097,-0.45673 0,-0.65074 0.13719,-0.27437 0.51355,-0.37636 0.65074,-0.65073 0.0841,-0.16825 0,-3.44318 0,-3.90443 0,-0.21691 -0.097,-0.45672 0,-0.65073 0.13719,-0.27438 0.51355,-0.37637 0.65074,-0.65074 0.20526,-0.41053 -0.20527,-2.84316 0,-3.25369 0.13719,-0.27437 0.51355,-0.37636 0.65074,-0.65073 0.19401,-0.38803 -0.30677,-0.99472 0,-1.30148 0.15338,-0.15338 0.49735,0.15338 0.65073,0 0.17806,-0.17806 -0.17651,-2.24993 0,-2.60295 0.13719,-0.27437 0.51355,-0.37636 0.65074,-0.65074 0.19401,-0.38802 -0.30676,-0.99471 0,-1.30147 0.15338,-0.15338 0.49736,0.15338 0.65074,0 0.30676,-0.30676 -0.43383,-1.30147 0,-1.30147 0.30676,0 0.35972,0.55373 0.65073,0.65073 0.41157,0.13719 0.86765,0 1.30148,0"
       id="path2818" />
    <path
       sodipodi:type="star"
       style="color:#000000;fill:#e8d0ff;fill-opacity:1;fill-rule:nonzero;stroke:#ffffff;stroke-width:5.24018812;stroke-linecap:square;stroke-linejoin:miter;stroke-miterlimit:4;stroke-opacity:1;stroke-dasharray:none;stroke-dashoffset:0;marker:none;visibility:visible;display:inline;overflow:visible;enable-background:accumulate"
       id="path3592"
       sodipodi:sides="7"
       sodipodi:cx="155.52618"
       sodipodi:cy="427.65451"
       sodipodi:r1="27.746138"
       sodipodi:r2="7.2794619"
       sodipodi:arg1="0.88506682"
       sodipodi:arg2="1.3338658"
       inkscape:flatsided="false"
       inkscape:rounded="0"
       inkscape:randomized="0"
       d="m 173.09609,449.12884 -15.86127,-14.39823 -7.54328,20.04963 1.36765,-21.37799 -20.3786,6.60316 17.5667,-12.25968 -17.8684,-11.81562 20.53766,6.09041 -1.90294,-21.337 8.04335,19.8543 15.49547,-14.79119 -10.50777,18.6675 21.22548,2.8927 -21.14632,3.42369 10.97227,18.39832 z"
       transform="matrix(0.60629429,0,0,0.61506744,196.4453,81.353571)" />
    <path
       sodipodi:type="star"
       style="color:#000000;fill:#e8d0ff;fill-opacity:1;fill-rule:nonzero;stroke:#ffffff;stroke-width:5.24018812;stroke-linecap:square;stroke-linejoin:miter;stroke-miterlimit:4;stroke-opacity:1;stroke-dasharray:none;stroke-dashoffset:0;marker:none;visibility:visible;display:inline;overflow:visible;enable-background:accumulate"
       id="path3592-2"
       sodipodi:sides="7"
       sodipodi:cx="155.52618"
       sodipodi:cy="427.65451"
       sodipodi:r1="27.746138"
       sodipodi:r2="7.2794619"
       sodipodi:arg1="0.88506682"
       sodipodi:arg2="1.3338658"
       inkscape:flatsided="false"
       inkscape:rounded="0"
       inkscape:randomized="0"
       d="m 173.09609,449.12884 -15.86127,-14.39823 -7.54328,20.04963 1.36765,-21.37799 -20.3786,6.60316 17.5667,-12.25968 -17.8684,-11.81562 20.53766,6.09041 -1.90294,-21.337 8.04335,19.8543 15.49547,-14.79119 -10.50777,18.6675 21.22548,2.8927 -21.14632,3.42369 10.97227,18.39832 z"
       transform="matrix(0.60629429,0,0,0.61506744,253.71331,46.136392)" />
    <path
       sodipodi:type="star"
       style="color:#000000;fill:#e8d0ff;fill-opacity:1;fill-rule:nonzero;stroke:#ffffff;stroke-width:5.24018812;stroke-linecap:square;stroke-linejoin:miter;stroke-miterlimit:4;stroke-opacity:1;stroke-dasharray:none;stroke-dashoffset:0;marker:none;visibility:visible;display:inline;overflow:visible;enable-background:accumulate"
       id="path3592-2-3"
       sodipodi:sides="7"
       sodipodi:cx="155.52618"
       sodipodi:cy="427.65451"
       sodipodi:r1="27.746138"
       sodipodi:r2="7.2794619"
       sodipodi:arg1="0.88506682"
       sodipodi:arg2="1.3338658"
       inkscape:flatsided="false"
       inkscape:rounded="0"
       inkscape:randomized="0"
       d="m 173.09609,449.12884 -15.86127,-14.39823 -7.54328,20.04963 1.36765,-21.37799 -20.3786,6.60316 17.5667,-12.25968 -17.8684,-11.81562 20.53766,6.09041 -1.90294,-21.337 8.04335,19.8543 15.49547,-14.79119 -10.50777,18.6675 21.22548,2.8927 -21.14632,3.42369 10.97227,18.39832 z"
       transform="matrix(0.60629429,0,0,0.61506744,223.7794,-16.334376)" />
    <path
       style="color:#000000;fill:#ff0020;fill-opacity:1;fill-rule:nonzero;stroke:none;stroke-width:4.15999985;marker:none;visibility:visible;display:inline;overflow:visible;enable-background:accumulate"
       d="m 105.09258,145.99717 c -27.176998,0 -49.208318,22.03131 -49.208318,49.20832 0,27.17701 22.03132,49.20832 49.208318,49.20832 27.17701,0 49.20833,-22.03131 49.20833,-49.20832 0,-27.17701 -22.03132,-49.20832 -49.20833,-49.20832 z m -0.88421,15.14693 c 0.2922,-0.007 0.59023,0 0.88421,0 18.81485,0 34.06139,15.24654 34.06139,34.06139 0,18.81485 -15.24654,34.0742 -34.06139,34.0742 -18.814848,0 -34.061378,-15.25935 -34.061378,-34.0742 0,-18.52087 14.7687,-33.595 33.177168,-34.06139 z"
       id="path4112" />
    <g
       id="g4172"
       transform="matrix(0.35841041,-0.06525749,0.06525749,0.35841041,-21.278638,27.571421)">
      <g
         transform="matrix(1,0,0,0.46177554,20,221.11728)"
         id="g4100">
        <path
           style="color:#000000;fill:#8200ff;fill-opacity:1;fill-rule:nonzero;stroke:#000000;stroke-width:12.92623234;stroke-linecap:square;stroke-linejoin:bevel;stroke-miterlimit:4;stroke-opacity:1;stroke-dasharray:none;stroke-dashoffset:0;marker:none;visibility:visible;display:inline;overflow:visible;enable-background:accumulate"
           d="m 120,722.36219 60,140 140,0 50,-140 -30,-70.00001 -190,0 -30,70.00001 z"
           id="path3829" />
        <path
           sodipodi:type="star"
           style="opacity:0.41064639;color:#000000;fill:#e8d0ff;fill-opacity:1;fill-rule:nonzero;stroke:#ffffff;stroke-width:21.16746521;stroke-linecap:square;stroke-linejoin:miter;stroke-miterlimit:4;stroke-opacity:1;stroke-dasharray:none;stroke-dashoffset:0;marker:none;visibility:visible;display:inline;overflow:visible;enable-background:accumulate"
           id="path3592-9-7"
           sodipodi:sides="7"
           sodipodi:cx="155.52618"
           sodipodi:cy="427.65451"
           sodipodi:r1="27.746138"
           sodipodi:r2="7.2794619"
           sodipodi:arg1="0.88506682"
           sodipodi:arg2="1.3338658"
           inkscape:flatsided="false"
           inkscape:rounded="0"
           inkscape:randomized="0"
           d="m 173.09609,449.12884 -15.86127,-14.39823 -7.54328,20.04963 1.36765,-21.37799 -20.3786,6.60316 17.5667,-12.25968 -17.8684,-11.81562 20.53766,6.09041 -1.90294,-21.337 8.04335,19.8543 15.49547,-14.79119 -10.50777,18.6675 21.22548,2.8927 -21.14632,3.42369 10.97227,18.39832 z"
           transform="matrix(0.60629429,0,0,0.61506744,81.705255,427.43384)" />
        <path
           sodipodi:type="star"
           style="opacity:0.41064639;color:#000000;fill:#e8d0ff;fill-opacity:1;fill-rule:nonzero;stroke:#ffffff;stroke-width:21.16746521;stroke-linecap:square;stroke-linejoin:miter;stroke-miterlimit:4;stroke-opacity:1;stroke-dasharray:none;stroke-dashoffset:0;marker:none;visibility:visible;display:inline;overflow:visible;enable-background:accumulate"
           id="path3592-9-7-2"
           sodipodi:sides="7"
           sodipodi:cx="155.52618"
           sodipodi:cy="427.65451"
           sodipodi:r1="27.746138"
           sodipodi:r2="7.2794619"
           sodipodi:arg1="0.88506682"
           sodipodi:arg2="1.3338658"
           inkscape:flatsided="false"
           inkscape:rounded="0"
           inkscape:randomized="0"
           d="m 173.09609,449.12884 -15.86127,-14.39823 -7.54328,20.04963 1.36765,-21.37799 -20.3786,6.60316 17.5667,-12.25968 -17.8684,-11.81562 20.53766,6.09041 -1.90294,-21.337 8.04335,19.8543 15.49547,-14.79119 -10.50777,18.6675 21.22548,2.8927 -21.14632,3.42369 10.97227,18.39832 z"
           transform="matrix(0.60629429,0,0,0.61506744,184.66943,554.97352)" />
        <path
           sodipodi:type="star"
           style="opacity:0.41064639;color:#000000;fill:#e8d0ff;fill-opacity:1;fill-rule:nonzero;stroke:#ffffff;stroke-width:21.16746521;stroke-linecap:square;stroke-linejoin:miter;stroke-miterlimit:4;stroke-opacity:1;stroke-dasharray:none;stroke-dashoffset:0;marker:none;visibility:visible;display:inline;overflow:visible;enable-background:accumulate"
           id="path3592-9-7-2-4"
           sodipodi:sides="7"
           sodipodi:cx="155.52618"
           sodipodi:cy="427.65451"
           sodipodi:r1="27.746138"
           sodipodi:r2="7.2794619"
           sodipodi:arg1="0.88506682"
           sodipodi:arg2="1.3338658"
           inkscape:flatsided="false"
           inkscape:rounded="0"
           inkscape:randomized="0"
           d="m 173.09609,449.12884 -15.86127,-14.39823 -7.54328,20.04963 1.36765,-21.37799 -20.3786,6.60316 17.5667,-12.25968 -17.8684,-11.81562 20.53766,6.09041 -1.90294,-21.337 8.04335,19.8543 15.49547,-14.79119 -10.50777,18.6675 21.22548,2.8927 -21.14632,3.42369 10.97227,18.39832 z"
           transform="matrix(0.60629429,0,0,0.61506744,80.118505,529.26969)" />
        <path
           sodipodi:type="star"
           style="opacity:0.41064639;color:#000000;fill:#e8d0ff;fill-opacity:1;fill-rule:nonzero;stroke:#ffffff;stroke-width:21.16746521;stroke-linecap:square;stroke-linejoin:miter;stroke-miterlimit:4;stroke-opacity:1;stroke-dasharray:none;stroke-dashoffset:0;marker:none;visibility:visible;display:inline;overflow:visible;enable-background:accumulate"
           id="path3592-9-7-2-4-8"
           sodipodi:sides="7"
           sodipodi:cx="155.52618"
           sodipodi:cy="427.65451"
           sodipodi:r1="27.746138"
           sodipodi:r2="7.2794619"
           sodipodi:arg1="0.88506682"
           sodipodi:arg2="1.3338658"
           inkscape:flatsided="false"
           inkscape:rounded="0"
           inkscape:randomized="0"
           d="m 173.09609,449.12884 -15.86127,-14.39823 -7.54328,20.04963 1.36765,-21.37799 -20.3786,6.60316 17.5667,-12.25968 -17.8684,-11.81562 20.53766,6.09041 -1.90294,-21.337 8.04335,19.8543 15.49547,-14.79119 -10.50777,18.6675 21.22548,2.8927 -21.14632,3.42369 10.97227,18.39832 z"
           transform="matrix(0.60629429,0,0,0.61506744,154.77726,463.70304)" />
        <path
           sodipodi:type="star"
           style="opacity:0.41064639;color:#000000;fill:#e8d0ff;fill-opacity:1;fill-rule:nonzero;stroke:#ffffff;stroke-width:21.16746521;stroke-linecap:square;stroke-linejoin:miter;stroke-miterlimit:4;stroke-opacity:1;stroke-dasharray:none;stroke-dashoffset:0;marker:none;visibility:visible;display:inline;overflow:visible;enable-background:accumulate"
           id="path3592-9-7-2-4-8-0"
           sodipodi:sides="7"
           sodipodi:cx="155.52618"
           sodipodi:cy="427.65451"
           sodipodi:r1="27.746138"
           sodipodi:r2="7.2794619"
           sodipodi:arg1="0.88506682"
           sodipodi:arg2="1.3338658"
           inkscape:flatsided="false"
           inkscape:rounded="0"
           inkscape:randomized="0"
           d="m 173.09609,449.12884 -15.86127,-14.39823 -7.54328,20.04963 1.36765,-21.37799 -20.3786,6.60316 17.5667,-12.25968 -17.8684,-11.81562 20.53766,6.09041 -1.90294,-21.337 8.04335,19.8543 15.49547,-14.79119 -10.50777,18.6675 21.22548,2.8927 -21.14632,3.42369 10.97227,18.39832 z"
           transform="matrix(0.60629429,0,0,0.61506744,231.70526,457.43384)" />
        <path
           sodipodi:type="star"
           style="opacity:0.41064639;color:#000000;fill:#e8d0ff;fill-opacity:1;fill-rule:nonzero;stroke:#ffffff;stroke-width:64.99505615;stroke-linecap:square;stroke-linejoin:miter;stroke-miterlimit:4;stroke-opacity:1;stroke-dasharray:none;stroke-dashoffset:0;marker:none;visibility:visible;display:inline;overflow:visible;enable-background:accumulate"
           id="path3592-9-2-7"
           sodipodi:sides="7"
           sodipodi:cx="155.52618"
           sodipodi:cy="427.65451"
           sodipodi:r1="27.746138"
           sodipodi:r2="7.2794619"
           sodipodi:arg1="0.88506682"
           sodipodi:arg2="1.3338658"
           inkscape:flatsided="false"
           inkscape:rounded="0"
           inkscape:randomized="0"
           d="m 173.09609,449.12884 -15.86127,-14.39823 -7.54328,20.04963 1.36765,-21.37799 -20.3786,6.60316 17.5667,-12.25968 -17.8684,-11.81562 20.53766,6.09041 -1.90294,-21.337 8.04335,19.8543 15.49547,-14.79119 -10.50777,18.6675 21.22548,2.8927 -21.14632,3.42369 10.97227,18.39832 z"
           transform="matrix(0.19745676,0,0,0.20031398,248.95292,595.27954)" />
        <path
           sodipodi:type="star"
           style="opacity:0.41064639;color:#000000;fill:#e8d0ff;fill-opacity:1;fill-rule:nonzero;stroke:#ffffff;stroke-width:64.99505615;stroke-linecap:square;stroke-linejoin:miter;stroke-miterlimit:4;stroke-opacity:1;stroke-dasharray:none;stroke-dashoffset:0;marker:none;visibility:visible;display:inline;overflow:visible;enable-background:accumulate"
           id="path3592-9-2-7-6"
           sodipodi:sides="7"
           sodipodi:cx="155.52618"
           sodipodi:cy="427.65451"
           sodipodi:r1="27.746138"
           sodipodi:r2="7.2794619"
           sodipodi:arg1="0.88506682"
           sodipodi:arg2="1.3338658"
           inkscape:flatsided="false"
           inkscape:rounded="0"
           inkscape:randomized="0"
           d="m 173.09609,449.12884 -15.86127,-14.39823 -7.54328,20.04963 1.36765,-21.37799 -20.3786,6.60316 17.5667,-12.25968 -17.8684,-11.81562 20.53766,6.09041 -1.90294,-21.337 8.04335,19.8543 15.49547,-14.79119 -10.50777,18.6675 21.22548,2.8927 -21.14632,3.42369 10.97227,18.39832 z"
           transform="matrix(0.19745676,0,0,0.20031398,207.98756,706.08082)" />
        <path
           sodipodi:type="star"
           style="opacity:0.41064639;color:#000000;fill:#e8d0ff;fill-opacity:1;fill-rule:nonzero;stroke:#ffffff;stroke-width:64.99505615;stroke-linecap:square;stroke-linejoin:miter;stroke-miterlimit:4;stroke-opacity:1;stroke-dasharray:none;stroke-dashoffset:0;marker:none;visibility:visible;display:inline;overflow:visible;enable-background:accumulate"
           id="path3592-9-2-7-2"
           sodipodi:sides="7"
           sodipodi:cx="155.52618"
           sodipodi:cy="427.65451"
           sodipodi:r1="27.746138"
           sodipodi:r2="7.2794619"
           sodipodi:arg1="0.88506682"
           sodipodi:arg2="1.3338658"
           inkscape:flatsided="false"
           inkscape:rounded="0"
           inkscape:randomized="0"
           d="m 173.09609,449.12884 -15.86127,-14.39823 -7.54328,20.04963 1.36765,-21.37799 -20.3786,6.60316 17.5667,-12.25968 -17.8684,-11.81562 20.53766,6.09041 -1.90294,-21.337 8.04335,19.8543 15.49547,-14.79119 -10.50777,18.6675 21.22548,2.8927 -21.14632,3.42369 10.97227,18.39832 z"
           transform="matrix(0.19745676,0,0,0.20031398,273.81207,686.76663)" />
        <path
           sodipodi:type="star"
           style="opacity:0.41064639;color:#000000;fill:#e8d0ff;fill-opacity:1;fill-rule:nonzero;stroke:#ffffff;stroke-width:64.99505615;stroke-linecap:square;stroke-linejoin:miter;stroke-miterlimit:4;stroke-opacity:1;stroke-dasharray:none;stroke-dashoffset:0;marker:none;visibility:visible;display:inline;overflow:visible;enable-background:accumulate"
           id="path3592-9-2-7-2-3"
           sodipodi:sides="7"
           sodipodi:cx="155.52618"
           sodipodi:cy="427.65451"
           sodipodi:r1="27.746138"
           sodipodi:r2="7.2794619"
           sodipodi:arg1="0.88506682"
           sodipodi:arg2="1.3338658"
           inkscape:flatsided="false"
           inkscape:rounded="0"
           inkscape:randomized="0"
           d="m 173.09609,449.12884 -15.86127,-14.39823 -7.54328,20.04963 1.36765,-21.37799 -20.3786,6.60316 17.5667,-12.25968 -17.8684,-11.81562 20.53766,6.09041 -1.90294,-21.337 8.04335,19.8543 15.49547,-14.79119 -10.50777,18.6675 21.22548,2.8927 -21.14632,3.42369 10.97227,18.39832 z"
           transform="matrix(0.19745676,0,0,0.20031398,144.25581,659.04555)" />
      </g>
      <g
         id="g4162">
        <g
           id="g4154">
          <path
             id="path3640"
             d="m 230,422.36218 0,70 50,-100 -50,30 -30,120 20,20 50,0 50,0 20,-20 -60,-150"
             style="color:#000000;fill:#8200ff;fill-opacity:1;fill-rule:nonzero;stroke:#000000;stroke-width:8.78390121;stroke-linecap:square;stroke-linejoin:bevel;stroke-miterlimit:4;stroke-opacity:1;stroke-dasharray:none;stroke-dashoffset:0;marker:none;visibility:visible;display:inline;overflow:visible;enable-background:accumulate" />
          <path
             transform="matrix(0.60629429,0,0,0.61506744,134.77726,263.70306)"
             d="m 173.09609,449.12884 -15.86127,-14.39823 -7.54328,20.04963 1.36765,-21.37799 -20.3786,6.60316 17.5667,-12.25968 -17.8684,-11.81562 20.53766,6.09041 -1.90294,-21.337 8.04335,19.8543 15.49547,-14.79119 -10.50777,18.6675 21.22548,2.8927 -21.14632,3.42369 10.97227,18.39832 z"
             inkscape:randomized="0"
             inkscape:rounded="0"
             inkscape:flatsided="false"
             sodipodi:arg2="1.3338658"
             sodipodi:arg1="0.88506682"
             sodipodi:r2="7.2794619"
             sodipodi:r1="27.746138"
             sodipodi:cy="427.65451"
             sodipodi:cx="155.52618"
             sodipodi:sides="7"
             id="path3592-9"
             style="opacity:0.5209125;color:#000000;fill:#e8d0ff;fill-opacity:1;fill-rule:nonzero;stroke:#ffffff;stroke-width:14.38415337;stroke-linecap:square;stroke-linejoin:miter;stroke-miterlimit:4;stroke-opacity:1;stroke-dasharray:none;stroke-dashoffset:0;marker:none;visibility:visible;display:inline;overflow:visible;enable-background:accumulate"
             sodipodi:type="star" />
          <path
             transform="matrix(0.19745676,0,0,0.20031398,278.95292,465.27956)"
             d="m 173.09609,449.12884 -15.86127,-14.39823 -7.54328,20.04963 1.36765,-21.37799 -20.3786,6.60316 17.5667,-12.25968 -17.8684,-11.81562 20.53766,6.09041 -1.90294,-21.337 8.04335,19.8543 15.49547,-14.79119 -10.50777,18.6675 21.22548,2.8927 -21.14632,3.42369 10.97227,18.39832 z"
             inkscape:randomized="0"
             inkscape:rounded="0"
             inkscape:flatsided="false"
             sodipodi:arg2="1.3338658"
             sodipodi:arg1="0.88506682"
             sodipodi:r2="7.2794619"
             sodipodi:r1="27.746138"
             sodipodi:cy="427.65451"
             sodipodi:cx="155.52618"
             sodipodi:sides="7"
             id="path3592-9-2"
             style="opacity:0.5209125;color:#000000;fill:#e8d0ff;fill-opacity:1;fill-rule:nonzero;stroke:#ffffff;stroke-width:44.16678619;stroke-linecap:square;stroke-linejoin:miter;stroke-miterlimit:4;stroke-opacity:1;stroke-dasharray:none;stroke-dashoffset:0;marker:none;visibility:visible;display:inline;overflow:visible;enable-background:accumulate"
             sodipodi:type="star" />
          <path
             transform="matrix(0.19745676,0,0,0.20031398,220.57626,412.09967)"
             d="m 173.09609,449.12884 -15.86127,-14.39823 -7.54328,20.04963 1.36765,-21.37799 -20.3786,6.60316 17.5667,-12.25968 -17.8684,-11.81562 20.53766,6.09041 -1.90294,-21.337 8.04335,19.8543 15.49547,-14.79119 -10.50777,18.6675 21.22548,2.8927 -21.14632,3.42369 10.97227,18.39832 z"
             inkscape:randomized="0"
             inkscape:rounded="0"
             inkscape:flatsided="false"
             sodipodi:arg2="1.3338658"
             sodipodi:arg1="0.88506682"
             sodipodi:r2="7.2794619"
             sodipodi:r1="27.746138"
             sodipodi:cy="427.65451"
             sodipodi:cx="155.52618"
             sodipodi:sides="7"
             id="path3592-9-2-8"
             style="opacity:0.5209125;color:#000000;fill:#e8d0ff;fill-opacity:1;fill-rule:nonzero;stroke:#ffffff;stroke-width:44.16678619;stroke-linecap:square;stroke-linejoin:miter;stroke-miterlimit:4;stroke-opacity:1;stroke-dasharray:none;stroke-dashoffset:0;marker:none;visibility:visible;display:inline;overflow:visible;enable-background:accumulate"
             sodipodi:type="star" />
          <path
             transform="matrix(0.19745676,0,0,0.20031398,265.82101,422.3954)"
             d="m 173.09609,449.12884 -15.86127,-14.39823 -7.54328,20.04963 1.36765,-21.37799 -20.3786,6.60316 17.5667,-12.25968 -17.8684,-11.81562 20.53766,6.09041 -1.90294,-21.337 8.04335,19.8543 15.49547,-14.79119 -10.50777,18.6675 21.22548,2.8927 -21.14632,3.42369 10.97227,18.39832 z"
             inkscape:randomized="0"
             inkscape:rounded="0"
             inkscape:flatsided="false"
             sodipodi:arg2="1.3338658"
             sodipodi:arg1="0.88506682"
             sodipodi:r2="7.2794619"
             sodipodi:r1="27.746138"
             sodipodi:cy="427.65451"
             sodipodi:cx="155.52618"
             sodipodi:sides="7"
             id="path3592-9-2-9"
             style="opacity:0.5209125;color:#000000;fill:#e8d0ff;fill-opacity:1;fill-rule:nonzero;stroke:#ffffff;stroke-width:44.16678619;stroke-linecap:square;stroke-linejoin:miter;stroke-miterlimit:4;stroke-opacity:1;stroke-dasharray:none;stroke-dashoffset:0;marker:none;visibility:visible;display:inline;overflow:visible;enable-background:accumulate"
             sodipodi:type="star" />
          <path
             transform="matrix(0.60629429,0,0,0.61506744,161.75325,201.31887)"
             d="m 173.09609,449.12884 -15.86127,-14.39823 -7.54328,20.04963 1.36765,-21.37799 -20.3786,6.60316 17.5667,-12.25968 -17.8684,-11.81562 20.53766,6.09041 -1.90294,-21.337 8.04335,19.8543 15.49547,-14.79119 -10.50777,18.6675 21.22548,2.8927 -21.14632,3.42369 10.97227,18.39832 z"
             inkscape:randomized="0"
             inkscape:rounded="0"
             inkscape:flatsided="false"
             sodipodi:arg2="1.3338658"
             sodipodi:arg1="0.88506682"
             sodipodi:r2="7.2794619"
             sodipodi:r1="27.746138"
             sodipodi:cy="427.65451"
             sodipodi:cx="155.52618"
             sodipodi:sides="7"
             id="path3592-9-29"
             style="opacity:0.5209125;color:#000000;fill:#e8d0ff;fill-opacity:1;fill-rule:nonzero;stroke:#ffffff;stroke-width:14.38415337;stroke-linecap:square;stroke-linejoin:miter;stroke-miterlimit:4;stroke-opacity:1;stroke-dasharray:none;stroke-dashoffset:0;marker:none;visibility:visible;display:inline;overflow:visible;enable-background:accumulate"
             sodipodi:type="star" />
        </g>
        <path
           style="color:#000000;fill:#8200ff;fill-opacity:1;fill-rule:nonzero;stroke:#000000;stroke-width:8.78390121;stroke-linecap:square;stroke-linejoin:bevel;stroke-miterlimit:4;stroke-opacity:1;stroke-dasharray:none;stroke-dashoffset:0;marker:none;visibility:visible;display:inline;overflow:visible;enable-background:accumulate"
           d="m 230,422.36218 0,70 50,-100 -50,30 50,-30"
           id="path3640-1"
           sodipodi:nodetypes="ccccc" />
      </g>
    </g>
    <path
       style="color:#000000;fill:#ff0020;fill-opacity:1;fill-rule:nonzero;stroke:none;stroke-width:3.20000005;marker:none;visibility:visible;display:inline;overflow:visible;enable-background:accumulate"
       d="m 68.662302,222.50076 54.002538,-58.28845 11.57197,11.65769 -50.145218,54.40256 -3.85732,3.8859 -11.57197,-11.6577 z"
       id="path4194" />
    <image
       y="377.36218"
       x="-1040"
       id="image4227"
       height="231"
       width="231"
       xlink:href="file:///home/derek/dev/rhodesia/inkscape_pasted_image_20120101_020547.png"
       style="fill:#fafdf4;fill-opacity:1" />
    <g
       id="g4302"
       transform="matrix(-1,0,0,1,-509.54153,0)"
       inkscape:export-filename="/tmp/black-mage.png"
       inkscape:export-xdpi="89.34726"
       inkscape:export-ydpi="89.34726">
      <path
         id="path4112-9"
         d="m -257.77077,393.21834 c -32.60661,0 -59.03949,26.43288 -59.03949,59.0395 0,32.60662 26.43288,59.03949 59.03949,59.03949 32.60662,0 59.0395,-26.43287 59.0395,-59.03949 0,-32.60662 -26.43288,-59.0395 -59.0395,-59.0395 z m -1.06086,18.17309 c 0.35057,-0.008 0.70815,0 1.06086,0 22.57381,0 40.8664,18.2926 40.8664,40.86641 0,22.5738 -18.29259,40.88177 -40.8664,40.88177 -22.57381,0 -40.86639,-18.30797 -40.86639,-40.88177 0,-22.2211 17.71929,-40.30684 39.80553,-40.86641 z"
         style="color:#000000;fill:#ff0020;fill-opacity:1;fill-rule:nonzero;stroke:none;stroke-width:4.15999985;marker:none;visibility:visible;display:inline;overflow:visible;enable-background:accumulate" />
      <image
         xlink:href="file:///home/derek/dev/rhodesia/inkscape_pasted_image_20120101_020730.png"
         width="68.528061"
         height="105.17155"
         id="image4298"
         x="-303.56525"
         y="382.36218" />
      <path
         id="path4194-3"
         d="m -299.87937,485.31453 69.07582,-74.55802 14.80196,14.9116 -64.14184,69.5875 -4.93398,4.97054 -14.80196,-14.91162 z"
         style="color:#000000;fill:#ff0020;fill-opacity:1;fill-rule:nonzero;stroke:none;stroke-width:3.20000005;marker:none;visibility:visible;display:inline;overflow:visible;enable-background:accumulate" />
    </g>
  </g>
</svg>
