<?xml version="1.0" encoding="UTF-8" standalone="no"?>
<!-- Created with Inkscape (http://www.inkscape.org/) -->

<svg
   xmlns:dc="http://purl.org/dc/elements/1.1/"
   xmlns:cc="http://creativecommons.org/ns#"
   xmlns:rdf="http://www.w3.org/1999/02/22-rdf-syntax-ns#"
   xmlns:svg="http://www.w3.org/2000/svg"
   xmlns="http://www.w3.org/2000/svg"
   xmlns:sodipodi="http://sodipodi.sourceforge.net/DTD/sodipodi-0.dtd"
   xmlns:inkscape="http://www.inkscape.org/namespaces/inkscape"
   width="744.09448819"
   height="1052.3622047"
   id="svg2"
   version="1.1"
   inkscape:version="0.47 r22583"
   sodipodi:docname="New document 1">
  <defs
     id="defs4">
    <inkscape:perspective
       sodipodi:type="inkscape:persp3d"
       inkscape:vp_x="0 : 526.18109 : 1"
       inkscape:vp_y="0 : 1000 : 0"
       inkscape:vp_z="744.09448 : 526.18109 : 1"
       inkscape:persp3d-origin="372.04724 : 350.78739 : 1"
       id="perspective10" />
    <inkscape:perspective
       id="perspective3604"
       inkscape:persp3d-origin="0.5 : 0.33333333 : 1"
       inkscape:vp_z="1 : 0.5 : 1"
       inkscape:vp_y="0 : 1000 : 0"
       inkscape:vp_x="0 : 0.5 : 1"
       sodipodi:type="inkscape:persp3d" />
    <inkscape:perspective
       id="perspective3626"
       inkscape:persp3d-origin="0.5 : 0.33333333 : 1"
       inkscape:vp_z="1 : 0.5 : 1"
       inkscape:vp_y="0 : 1000 : 0"
       inkscape:vp_x="0 : 0.5 : 1"
       sodipodi:type="inkscape:persp3d" />
    <inkscape:perspective
       id="perspective3682"
       inkscape:persp3d-origin="0.5 : 0.33333333 : 1"
       inkscape:vp_z="1 : 0.5 : 1"
       inkscape:vp_y="0 : 1000 : 0"
       inkscape:vp_x="0 : 0.5 : 1"
       sodipodi:type="inkscape:persp3d" />
    <inkscape:perspective
       id="perspective3704"
       inkscape:persp3d-origin="0.5 : 0.33333333 : 1"
       inkscape:vp_z="1 : 0.5 : 1"
       inkscape:vp_y="0 : 1000 : 0"
       inkscape:vp_x="0 : 0.5 : 1"
       sodipodi:type="inkscape:persp3d" />
    <inkscape:perspective
       id="perspective3731"
       inkscape:persp3d-origin="0.5 : 0.33333333 : 1"
       inkscape:vp_z="1 : 0.5 : 1"
       inkscape:vp_y="0 : 1000 : 0"
       inkscape:vp_x="0 : 0.5 : 1"
       sodipodi:type="inkscape:persp3d" />
    <inkscape:perspective
       id="perspective3753"
       inkscape:persp3d-origin="0.5 : 0.33333333 : 1"
       inkscape:vp_z="1 : 0.5 : 1"
       inkscape:vp_y="0 : 1000 : 0"
       inkscape:vp_x="0 : 0.5 : 1"
       sodipodi:type="inkscape:persp3d" />
    <inkscape:perspective
       id="perspective3778"
       inkscape:persp3d-origin="0.5 : 0.33333333 : 1"
       inkscape:vp_z="1 : 0.5 : 1"
       inkscape:vp_y="0 : 1000 : 0"
       inkscape:vp_x="0 : 0.5 : 1"
       sodipodi:type="inkscape:persp3d" />
    <inkscape:perspective
       id="perspective3800"
       inkscape:persp3d-origin="0.5 : 0.33333333 : 1"
       inkscape:vp_z="1 : 0.5 : 1"
       inkscape:vp_y="0 : 1000 : 0"
       inkscape:vp_x="0 : 0.5 : 1"
       sodipodi:type="inkscape:persp3d" />
    <inkscape:perspective
       id="perspective3840"
       inkscape:persp3d-origin="0.5 : 0.33333333 : 1"
       inkscape:vp_z="1 : 0.5 : 1"
       inkscape:vp_y="0 : 1000 : 0"
       inkscape:vp_x="0 : 0.5 : 1"
       sodipodi:type="inkscape:persp3d" />
    <inkscape:perspective
       id="perspective3866"
       inkscape:persp3d-origin="0.5 : 0.33333333 : 1"
       inkscape:vp_z="1 : 0.5 : 1"
       inkscape:vp_y="0 : 1000 : 0"
       inkscape:vp_x="0 : 0.5 : 1"
       sodipodi:type="inkscape:persp3d" />
    <inkscape:perspective
       id="perspective3888"
       inkscape:persp3d-origin="0.5 : 0.33333333 : 1"
       inkscape:vp_z="1 : 0.5 : 1"
       inkscape:vp_y="0 : 1000 : 0"
       inkscape:vp_x="0 : 0.5 : 1"
       sodipodi:type="inkscape:persp3d" />
    <inkscape:perspective
       id="perspective3917"
       inkscape:persp3d-origin="0.5 : 0.33333333 : 1"
       inkscape:vp_z="1 : 0.5 : 1"
       inkscape:vp_y="0 : 1000 : 0"
       inkscape:vp_x="0 : 0.5 : 1"
       sodipodi:type="inkscape:persp3d" />
    <inkscape:perspective
       id="perspective3917-7"
       inkscape:persp3d-origin="0.5 : 0.33333333 : 1"
       inkscape:vp_z="1 : 0.5 : 1"
       inkscape:vp_y="0 : 1000 : 0"
       inkscape:vp_x="0 : 0.5 : 1"
       sodipodi:type="inkscape:persp3d" />
  </defs>
  <sodipodi:namedview
     id="base"
     pagecolor="#ffffff"
     bordercolor="#666666"
     borderopacity="1.0"
     inkscape:pageopacity="0.0"
     inkscape:pageshadow="2"
     inkscape:zoom="5.6568542"
     inkscape:cx="93.228218"
     inkscape:cy="763.61865"
     inkscape:document-units="px"
     inkscape:current-layer="layer1"
     showgrid="true"
     inkscape:window-width="1200"
     inkscape:window-height="1577"
     inkscape:window-x="1200"
     inkscape:window-y="0"
     inkscape:window-maximized="1">
    <inkscape:grid
       type="xygrid"
       id="grid3643"
       empspacing="5"
       visible="true"
       enabled="true"
       snapvisiblegridlinesonly="true" />
  </sodipodi:namedview>
  <metadata
     id="metadata7">
    <rdf:RDF>
      <cc:Work
         rdf:about="">
        <dc:format>image/svg+xml</dc:format>
        <dc:type
           rdf:resource="http://purl.org/dc/dcmitype/StillImage" />
        <dc:title></dc:title>
      </cc:Work>
    </rdf:RDF>
  </metadata>
  <g
     inkscape:label="Layer 1"
     inkscape:groupmode="layer"
     id="layer1">
    <path
       style="color:#000000;fill:#ff6800;fill-opacity:1;fill-rule:nonzero;stroke:#000000;stroke-width:1;stroke-linecap:round;stroke-linejoin:round;stroke-miterlimit:4;stroke-opacity:1;stroke-dasharray:none;stroke-dashoffset:0;marker:none;visibility:visible;display:inline;overflow:visible;enable-background:accumulate"
       d="m -50,233.36218 -20,10 20,10 20,-10 -20,-10 z"
       id="path3645" />
    <path
       style="color:#000000;fill:#545454;fill-opacity:1;fill-rule:nonzero;stroke:#000000;stroke-width:1;stroke-linecap:round;stroke-linejoin:round;stroke-miterlimit:4;stroke-opacity:1;stroke-dasharray:none;stroke-dashoffset:0;marker:none;visibility:visible;display:inline;overflow:visible;enable-background:accumulate"
       d="m -50,233.36218 0,20 4,2 -4,2 0,20 20,-10 0,-4 0,-16 0,-4 -20,-10 z"
       id="path3649-0-9" />
    <path
       style="color:#000000;fill:#545454;fill-opacity:1;fill-rule:nonzero;stroke:#000000;stroke-width:1;stroke-linecap:round;stroke-linejoin:round;stroke-miterlimit:4;stroke-opacity:1;stroke-dasharray:none;stroke-dashoffset:0;marker:none;visibility:visible;display:inline;overflow:visible;enable-background:accumulate"
       d="m -50,233.36218 -20,10 0,4 0,16 0,4 20,10 0,-20 -4,-2 4,-2 0,-20 z"
       id="path3651-4-0" />
    <path
       style="color:#000000;fill:#ff6800;fill-opacity:1;fill-rule:nonzero;stroke:#000000;stroke-width:1;stroke-linecap:round;stroke-linejoin:round;stroke-miterlimit:4;stroke-opacity:1;stroke-dasharray:none;stroke-dashoffset:0;marker:none;visibility:visible;display:inline;overflow:visible;enable-background:accumulate"
       d="m -50,233.36219 -20,10 20,10 20,-10 -20,-10 z"
       id="path3645-6" />
    <rect
       style="color:#000000;fill:#545454;fill-opacity:1;fill-rule:nonzero;stroke:none;stroke-width:0.5;marker:none;visibility:visible;display:inline;overflow:visible;enable-background:accumulate"
       id="rect2820-2"
       width="650"
       height="40"
       x="80"
       y="197.36218"
       rx="0" />
    <path
       sodipodi:type="star"
       style="color:#000000;fill:#ff00b4;fill-opacity:1;fill-rule:nonzero;stroke:none;stroke-width:0.55639225;marker:none;visibility:visible;display:inline;overflow:visible;enable-background:accumulate"
       id="path3907"
       sodipodi:sides="40"
       sodipodi:cx="60"
       sodipodi:cy="72.362183"
       sodipodi:r1="18.522243"
       sodipodi:r2="2.4480453"
       sodipodi:arg1="-1.5714715"
       sodipodi:arg2="-1.3467553"
       inkscape:flatsided="false"
       inkscape:rounded="0"
       inkscape:randomized="0"
       d="M 59.987494,53.839943 60.543886,69.97532 62.885165,54.066027 60.910577,70.089789 65.711793,54.742622 61.254847,70.260211 68.397778,55.853069 61.568219,70.482391 70.876982,57.370026 61.842976,70.750858 73.088358,59.256139 62.072352,71.059001 74.977456,61.464966 62.250701,71.399233 76.497759,63.942119 62.373629,71.763175 77.611832,66.626602 62.438111,72.141868 78.292243,69.452314 62.442559,72.525985 78.522239,72.349677 62.386863,72.906068 78.296156,75.247347 62.272394,73.27276 77.619561,78.073976 62.101971,73.61703 76.509114,80.759961 61.879791,73.930401 74.992157,83.239164 61.611324,74.205158 73.106044,85.450541 61.303182,74.434535 70.897216,87.339638 60.96295,74.612883 68.420063,88.859941 60.599007,74.735812 65.73558,89.974014 60.220315,74.800294 62.909868,90.654426 59.836198,74.804742 60.012506,90.884422 59.456114,74.749045 57.114835,90.658339 59.089423,74.634577 54.288207,89.981743 58.745153,74.464154 51.602222,88.871296 58.431781,74.241974 49.123018,87.35434 58.157024,73.973507 46.911642,85.468226 57.927648,73.665364 45.022544,83.259399 57.749299,73.325133 43.502241,80.782246 57.626371,72.96119 42.388168,78.097763 57.561889,72.582498 41.707757,75.272051 57.557441,72.198381 41.477761,72.374688 57.613137,71.818297 41.703844,69.477018 57.727606,71.451605 42.380439,66.65039 57.898029,71.107335 43.490886,63.964405 58.120209,70.793964 45.007843,61.485201 58.388676,70.519207 46.893956,59.273825 58.696818,70.28983 49.102784,57.384727 59.03705,70.111482 51.579937,55.864424 59.400993,69.988553 54.26442,54.750351 l 5.515265,15.17372 -2.689553,-15.854132 3.07367,15.849685 -0.176308,-16.079681 z"
       transform="matrix(1.797293,0,0,1.797293,16.552414,87.600539)" />
    <path
       style="color:#000000;fill:#ddff00;fill-opacity:1;fill-rule:nonzero;stroke:#000000;stroke-width:1.89999998;stroke-linecap:round;stroke-linejoin:round;stroke-miterlimit:4;stroke-opacity:1;stroke-dasharray:none;stroke-dashoffset:0;marker:none;visibility:visible;display:inline;overflow:visible;enable-background:accumulate"
       d="m 0,167.36218 20,-10 0,-20 -20,10 0,20"
       id="path3649-7" />
    <path
       style="color:#000000;fill:#ddff00;fill-opacity:1;fill-rule:nonzero;stroke:#000000;stroke-width:1.89999998;stroke-linecap:round;stroke-linejoin:round;stroke-miterlimit:4;stroke-opacity:1;stroke-dasharray:none;stroke-dashoffset:0;marker:none;visibility:visible;display:inline;overflow:visible;enable-background:accumulate"
       d="m 40,167.36218 0,-20 -20,-10 0,20 20,10"
       id="path3651-3" />
    <path
       style="color:#000000;fill:#ff00aa;fill-opacity:1;fill-rule:nonzero;stroke:#000000;stroke-width:1;stroke-linecap:round;stroke-linejoin:round;stroke-miterlimit:4;stroke-opacity:1;stroke-dasharray:none;stroke-dashoffset:0;marker:none;visibility:visible;display:inline;overflow:visible;enable-background:accumulate"
       d="m 16,178.36218 4,2 0,-43 -4,-2 0,43"
       id="path3856" />
    <path
       style="color:#000000;fill:#ddff00;fill-opacity:1;fill-rule:nonzero;stroke:#000000;stroke-width:1.89999998;stroke-linecap:round;stroke-linejoin:round;stroke-miterlimit:4;stroke-opacity:1;stroke-dasharray:none;stroke-dashoffset:0;marker:none;visibility:visible;display:inline;overflow:visible;enable-background:accumulate"
       d="m 0,147.36218 20,10 0,20 -20,-10 0,-20"
       id="path3649" />
    <path
       style="color:#000000;fill:#ff00aa;fill-opacity:1;fill-rule:nonzero;stroke:#000000;stroke-width:1;stroke-linecap:round;stroke-linejoin:round;stroke-miterlimit:4;stroke-opacity:1;stroke-dasharray:none;stroke-dashoffset:0;marker:none;visibility:visible;display:inline;overflow:visible;enable-background:accumulate"
       d="m 24,178.36218 -4,2 0,-43 4,-2 0,43"
       id="path3856-0" />
    <path
       style="color:#000000;fill:#ddff00;fill-opacity:1;fill-rule:nonzero;stroke:#000000;stroke-width:1.89999998;stroke-linecap:round;stroke-linejoin:round;stroke-miterlimit:4;stroke-opacity:1;stroke-dasharray:none;stroke-dashoffset:0;marker:none;visibility:visible;display:inline;overflow:visible;enable-background:accumulate"
       d="m 40,147.36218 0,20 -20,10 0,-20 20,-10"
       id="path3651" />
    <path
       style="color:#000000;fill:#545454;fill-opacity:1;fill-rule:nonzero;stroke:#000000;stroke-width:1.89999998;stroke-linecap:round;stroke-linejoin:round;stroke-miterlimit:4;stroke-opacity:1;stroke-dasharray:none;stroke-dashoffset:0;marker:none;visibility:visible;display:inline;overflow:visible;enable-background:accumulate"
       d="m 20,130.36218 -20,10 20,10 20,-10 -20,-10 z"
       id="path3645-6-8" />
    <text
       xml:space="preserve"
       style="font-size:40px;font-style:normal;font-variant:normal;font-weight:normal;font-stretch:normal;text-align:start;line-height:125%;writing-mode:lr-tb;text-anchor:start;fill:#ffffff;fill-opacity:1;stroke:none;font-family:Share-Regular;-inkscape-font-specification:Share-Regular"
       x="85"
       y="232.36218"
       id="text2816"
       sodipodi:linespacing="125%"><tspan
         sodipodi:role="line"
         id="tspan2818"
         x="85"
         y="232.36218">Thinkium</tspan></text>
    <path
       sodipodi:type="arc"
       style="color:#000000;fill:#ddff00;fill-opacity:1;fill-rule:nonzero;stroke:#000000;stroke-width:1;stroke-linecap:round;stroke-linejoin:round;stroke-miterlimit:4;stroke-opacity:1;stroke-dasharray:none;stroke-dashoffset:0;marker:none;visibility:visible;display:inline;overflow:visible;enable-background:accumulate"
       id="path3905"
       sodipodi:cx="57.5"
       sodipodi:cy="99.862183"
       sodipodi:rx="7.5"
       sodipodi:ry="7.5"
       d="m 65,99.862183 a 7.5,7.5 0 1 1 -15,0 7.5,7.5 0 1 1 15,0 z"
       transform="translate(20,27.5)" />
    <path
       sodipodi:type="star"
       style="color:#000000;fill:none;fill-opacity:1;fill-rule:nonzero;stroke:none;stroke-width:0.76974469000000001;stroke-linecap:round;stroke-linejoin:round;stroke-miterlimit:4;stroke-opacity:1;stroke-dasharray:none;stroke-dashoffset:0;marker:none;visibility:visible;display:inline;overflow:visible;enable-background:accumulate"
       id="path3907-9"
       sodipodi:sides="40"
       sodipodi:cx="60"
       sodipodi:cy="72.362183"
       sodipodi:r1="15.740284"
       sodipodi:r2="6.5589867"
       sodipodi:arg1="-1.5715909"
       sodipodi:arg2="-1.4930511"
       inkscape:flatsided="false"
       inkscape:rounded="0"
       inkscape:randomized="0"
       d="m 59.987493,56.621904 0.521923,9.201104 1.940553,-9.009272 -0.923872,9.169471 3.326022,-8.594784 -2.346919,8.912054 4.629593,-7.968664 -3.712177,8.435193 5.81917,-7.146328 -4.986029,7.750629 6.865457,-6.148026 -6.137108,6.875219 7.742696,-4.998339 -7.137071,5.830518 8.429282,-3.725577 -7.961296,4.642251 8.908313,-2.361079 -8.589487,3.339676 9.167991,-0.938442 -9.006177,1.954867 9.201922,0.507301 -9.201105,0.521923 9.009273,1.940553 -9.169471,-0.923873 8.594784,3.326023 -8.912054,-2.34692 7.968663,4.629594 -8.435192,-3.712177 7.146328,5.819169 -7.750629,-4.986029 6.148026,6.865458 -6.875219,-6.137108 4.998339,7.742696 -5.830518,-7.137072 3.725577,8.429283 -4.642251,-7.961296 2.361078,8.908313 -3.339676,-8.589488 0.938443,9.167991 -1.954867,-9.006177 -0.507301,9.201923 -0.521923,-9.201105 -1.940553,9.009272 0.923872,-9.16947 -3.326022,8.594783 2.346919,-8.912053 -4.629593,7.968663 3.712177,-8.435193 -5.81917,7.146328 4.986029,-7.750629 -6.865457,6.148026 6.137108,-6.875219 -7.742696,4.99834 7.137071,-5.830519 -8.429282,3.725577 7.961296,-4.642251 -8.908313,2.361079 8.589487,-3.339676 -9.167991,0.938443 9.006177,-1.954868 -9.201922,-0.507301 9.201105,-0.521923 -9.009273,-1.940553 9.169471,0.923873 -8.594784,-3.326022 8.912054,2.346919 -7.968663,-4.629594 8.435192,3.712177 -7.146328,-5.819169 7.750629,4.986029 -6.148026,-6.865458 6.875219,6.137108 -4.998339,-7.742695 5.830518,7.137071 -3.725577,-8.429283 4.642251,7.961296 -2.361078,-8.908312 3.339676,8.589487 -0.938443,-9.167991 1.954867,9.006177 0.507301,-9.201922 z"
       transform="matrix(1.249669,0.35506494,-0.35506494,1.249669,50.725047,105.62951)" />
  </g>
</svg>
